<svg width="249" height="56" viewBox="0 0 249 56" fill="none" xmlns="http://www.w3.org/2000/svg">
<path d="M10.616 2.32V4.552H3.536V9.472H9.056V11.704H3.536V19H0.8V2.32H10.616ZM14.5436 4.024C14.0476 4.024 13.6316 3.856 13.2956 3.52C12.9596 3.184 12.7916 2.768 12.7916 2.272C12.7916 1.776 12.9596 1.36 13.2956 1.024C13.6316 0.687999 14.0476 0.519999 14.5436 0.519999C15.0236 0.519999 15.4316 0.687999 15.7676 1.024C16.1036 1.36 16.2716 1.776 16.2716 2.272C16.2716 2.768 16.1036 3.184 15.7676 3.52C15.4316 3.856 15.0236 4.024 14.5436 4.024ZM15.8876 5.776V19H13.1516V5.776H15.8876ZM18.5677 12.328C18.5677 11 18.8397 9.824 19.3837 8.8C19.9437 7.776 20.6957 6.984 21.6397 6.424C22.5997 5.848 23.6637 5.56 24.8317 5.56C25.8557 5.56 26.7597 5.768 27.5437 6.184C28.3437 6.6 28.9597 7.104 29.3917 7.696V5.776H32.1517V25.288H29.3917V17.08C28.9597 17.672 28.3357 18.176 27.5197 18.592C26.7037 19.008 25.7757 19.216 24.7357 19.216C23.5997 19.216 22.5597 18.928 21.6157 18.352C20.6877 17.76 19.9437 16.944 19.3837 15.904C18.8397 14.848 18.5677 13.656 18.5677 12.328ZM29.3917 12.376C29.3917 11.464 29.1997 10.672 28.8157 10C28.4477 9.328 27.9597 8.816 27.3517 8.464C26.7437 8.112 26.0877 7.936 25.3837 7.936C24.6797 7.936 24.0237 8.112 23.4157 8.464C22.8077 8.8 22.3117 9.304 21.9277 9.976C21.5597 10.632 21.3757 11.416 21.3757 12.328C21.3757 13.24 21.5597 14.04 21.9277 14.728C22.3117 15.416 22.8077 15.944 23.4157 16.312C24.0397 16.664 24.6957 16.84 25.3837 16.84C26.0877 16.84 26.7437 16.664 27.3517 16.312C27.9597 15.96 28.4477 15.448 28.8157 14.776C29.1997 14.088 29.3917 13.288 29.3917 12.376ZM47.7213 5.776V19H44.9853V17.44C44.5533 17.984 43.9853 18.416 43.2813 18.736C42.5933 19.04 41.8573 19.192 41.0733 19.192C40.0333 19.192 39.0973 18.976 38.2653 18.544C37.4493 18.112 36.8013 17.472 36.3213 16.624C35.8573 15.776 35.6253 14.752 35.6253 13.552V5.776H38.3373V13.144C38.3373 14.328 38.6333 15.24 39.2253 15.88C39.8173 16.504 40.6253 16.816 41.6493 16.816C42.6733 16.816 43.4813 16.504 44.0733 15.88C44.6813 15.24 44.9853 14.328 44.9853 13.144V5.776H47.7213ZM63.4513 12.064C63.4513 12.56 63.4193 13.008 63.3553 13.408H53.2513C53.3313 14.464 53.7233 15.312 54.4273 15.952C55.1313 16.592 55.9953 16.912 57.0193 16.912C58.4913 16.912 59.5313 16.296 60.1393 15.064H63.0912C62.6913 16.28 61.9633 17.28 60.9073 18.064C59.8673 18.832 58.5713 19.216 57.0193 19.216C55.7553 19.216 54.6193 18.936 53.6113 18.376C52.6193 17.8 51.8353 17 51.2593 15.976C50.6993 14.936 50.4193 13.736 50.4193 12.376C50.4193 11.016 50.6913 9.824 51.2353 8.8C51.7953 7.76 52.5713 6.96 53.5633 6.4C54.5713 5.84 55.7233 5.56 57.0193 5.56C58.2673 5.56 59.3793 5.832 60.3553 6.376C61.3313 6.92 62.0913 7.688 62.6353 8.68C63.1793 9.656 63.4513 10.784 63.4513 12.064ZM60.5953 11.2C60.5793 10.192 60.2193 9.384 59.5153 8.776C58.8113 8.168 57.9393 7.864 56.8993 7.864C55.9553 7.864 55.1473 8.168 54.4753 8.776C53.8033 9.368 53.4033 10.176 53.2753 11.2H60.5953ZM75.1141 7.72C75.5781 7.112 76.2101 6.6 77.0101 6.184C77.8101 5.768 78.7141 5.56 79.7221 5.56C80.8741 5.56 81.9221 5.848 82.8661 6.424C83.8261 6.984 84.5781 7.776 85.1221 8.8C85.6661 9.824 85.9381 11 85.9381 12.328C85.9381 13.656 85.6661 14.848 85.1221 15.904C84.5781 16.944 83.8261 17.76 82.8661 18.352C81.9221 18.928 80.8741 19.216 79.7221 19.216C78.7141 19.216 77.8181 19.016 77.0341 18.616C76.2501 18.2 75.6101 17.688 75.1141 17.08V25.288H72.3781V5.776H75.1141V7.72ZM83.1541 12.328C83.1541 11.416 82.9621 10.632 82.5781 9.976C82.2101 9.304 81.7141 8.8 81.0901 8.464C80.4821 8.112 79.8261 7.936 79.1221 7.936C78.4341 7.936 77.7781 8.112 77.1541 8.464C76.5461 8.816 76.0501 9.328 75.6661 10C75.2981 10.672 75.1141 11.464 75.1141 12.376C75.1141 13.288 75.2981 14.088 75.6661 14.776C76.0501 15.448 76.5461 15.96 77.1541 16.312C77.7781 16.664 78.4341 16.84 79.1221 16.84C79.8261 16.84 80.4821 16.664 81.0901 16.312C81.7141 15.944 82.2101 15.416 82.5781 14.728C82.9621 14.04 83.1541 13.24 83.1541 12.328ZM94.3798 19.216C93.1318 19.216 92.0038 18.936 90.9958 18.376C89.9878 17.8 89.1958 17 88.6198 15.976C88.0438 14.936 87.7558 13.736 87.7558 12.376C87.7558 11.032 88.0518 9.84 88.6438 8.8C89.2358 7.76 90.0438 6.96 91.0678 6.4C92.0918 5.84 93.2358 5.56 94.4998 5.56C95.7638 5.56 96.9078 5.84 97.9318 6.4C98.9558 6.96 99.7638 7.76 100.356 8.8C100.948 9.84 101.244 11.032 101.244 12.376C101.244 13.72 100.94 14.912 100.332 15.952C99.7238 16.992 98.8918 17.8 97.8358 18.376C96.7958 18.936 95.6438 19.216 94.3798 19.216ZM94.3798 16.84C95.0838 16.84 95.7398 16.672 96.3478 16.336C96.9718 16 97.4758 15.496 97.8598 14.824C98.2438 14.152 98.4358 13.336 98.4358 12.376C98.4358 11.416 98.2518 10.608 97.8838 9.952C97.5158 9.28 97.0278 8.776 96.4198 8.44C95.8118 8.104 95.1558 7.936 94.4518 7.936C93.7478 7.936 93.0918 8.104 92.4838 8.44C91.8918 8.776 91.4198 9.28 91.0678 9.952C90.7158 10.608 90.5398 11.416 90.5398 12.376C90.5398 13.8 90.8998 14.904 91.6198 15.688C92.3558 16.456 93.2758 16.84 94.3798 16.84ZM106.684 7.696C107.084 7.024 107.612 6.504 108.268 6.136C108.94 5.752 109.732 5.56 110.644 5.56V8.392H109.948C108.876 8.392 108.06 8.664 107.5 9.208C106.956 9.752 106.684 10.696 106.684 12.04V19H103.948V5.776H106.684V7.696ZM118.482 12.328C118.482 11 118.754 9.824 119.298 8.8C119.858 7.776 120.61 6.984 121.554 6.424C122.514 5.848 123.578 5.56 124.746 5.56C125.61 5.56 126.458 5.752 127.29 6.136C128.138 6.504 128.81 7 129.306 7.624V1.24H132.066V19H129.306V17.008C128.858 17.648 128.234 18.176 127.434 18.592C126.65 19.008 125.746 19.216 124.722 19.216C123.57 19.216 122.514 18.928 121.554 18.352C120.61 17.76 119.858 16.944 119.298 15.904C118.754 14.848 118.482 13.656 118.482 12.328ZM129.306 12.376C129.306 11.464 129.114 10.672 128.73 10C128.362 9.328 127.874 8.816 127.266 8.464C126.658 8.112 126.002 7.936 125.298 7.936C124.594 7.936 123.938 8.112 123.33 8.464C122.722 8.8 122.226 9.304 121.842 9.976C121.474 10.632 121.29 11.416 121.29 12.328C121.29 13.24 121.474 14.04 121.842 14.728C122.226 15.416 122.722 15.944 123.33 16.312C123.954 16.664 124.61 16.84 125.298 16.84C126.002 16.84 126.658 16.664 127.266 16.312C127.874 15.96 128.362 15.448 128.73 14.776C129.114 14.088 129.306 13.288 129.306 12.376ZM147.779 12.064C147.779 12.56 147.747 13.008 147.683 13.408H137.579C137.659 14.464 138.051 15.312 138.755 15.952C139.459 16.592 140.323 16.912 141.347 16.912C142.819 16.912 143.859 16.296 144.467 15.064H147.419C147.019 16.28 146.291 17.28 145.235 18.064C144.195 18.832 142.899 19.216 141.347 19.216C140.083 19.216 138.947 18.936 137.939 18.376C136.947 17.8 136.163 17 135.587 15.976C135.027 14.936 134.747 13.736 134.747 12.376C134.747 11.016 135.019 9.824 135.563 8.8C136.123 7.76 136.899 6.96 137.891 6.4C138.899 5.84 140.051 5.56 141.347 5.56C142.595 5.56 143.707 5.832 144.683 6.376C145.659 6.92 146.419 7.688 146.963 8.68C147.507 9.656 147.779 10.784 147.779 12.064ZM144.923 11.2C144.907 10.192 144.547 9.384 143.843 8.776C143.139 8.168 142.267 7.864 141.227 7.864C140.283 7.864 139.475 8.168 138.803 8.776C138.131 9.368 137.731 10.176 137.603 11.2H144.923ZM157.144 5.56C158.184 5.56 159.112 5.776 159.928 6.208C160.76 6.64 161.408 7.28 161.872 8.128C162.336 8.976 162.568 10 162.568 11.2V19H159.856V11.608C159.856 10.424 159.56 9.52 158.968 8.896C158.376 8.256 157.568 7.936 156.544 7.936C155.52 7.936 154.704 8.256 154.096 8.896C153.504 9.52 153.208 10.424 153.208 11.608V19H150.472V5.776H153.208V7.288C153.656 6.744 154.224 6.32 154.912 6.016C155.616 5.712 156.36 5.56 157.144 5.56ZM169.25 8.008V15.328C169.25 15.824 169.362 16.184 169.586 16.408C169.826 16.616 170.226 16.72 170.786 16.72H172.466V19H170.306C169.074 19 168.13 18.712 167.474 18.136C166.818 17.56 166.49 16.624 166.49 15.328V8.008H164.93V5.776H166.49V2.488H169.25V5.776H172.466V8.008H169.25ZM177.724 7.696C178.124 7.024 178.652 6.504 179.308 6.136C179.98 5.752 180.772 5.56 181.684 5.56V8.392H180.988C179.916 8.392 179.1 8.664 178.54 9.208C177.996 9.752 177.724 10.696 177.724 12.04V19H174.988V5.776H177.724V7.696ZM189.934 19.216C188.686 19.216 187.558 18.936 186.55 18.376C185.542 17.8 184.75 17 184.174 15.976C183.598 14.936 183.31 13.736 183.31 12.376C183.31 11.032 183.606 9.84 184.198 8.8C184.79 7.76 185.598 6.96 186.622 6.4C187.646 5.84 188.79 5.56 190.054 5.56C191.318 5.56 192.462 5.84 193.486 6.4C194.51 6.96 195.318 7.76 195.91 8.8C196.502 9.84 196.798 11.032 196.798 12.376C196.798 13.72 196.494 14.912 195.886 15.952C195.278 16.992 194.446 17.8 193.39 18.376C192.35 18.936 191.198 19.216 189.934 19.216ZM189.934 16.84C190.638 16.84 191.294 16.672 191.902 16.336C192.526 16 193.03 15.496 193.414 14.824C193.798 14.152 193.99 13.336 193.99 12.376C193.99 11.416 193.806 10.608 193.438 9.952C193.07 9.28 192.582 8.776 191.974 8.44C191.366 8.104 190.71 7.936 190.006 7.936C189.302 7.936 188.646 8.104 188.038 8.44C187.446 8.776 186.974 9.28 186.622 9.952C186.27 10.608 186.094 11.416 186.094 12.376C186.094 13.8 186.454 14.904 187.174 15.688C187.91 16.456 188.83 16.84 189.934 16.84ZM204.826 12.328C204.826 11 205.098 9.824 205.642 8.8C206.202 7.776 206.954 6.984 207.898 6.424C208.858 5.848 209.922 5.56 211.09 5.56C211.954 5.56 212.802 5.752 213.634 6.136C214.482 6.504 215.154 7 215.65 7.624V1.24H218.41V19H215.65V17.008C215.202 17.648 214.578 18.176 213.778 18.592C212.994 19.008 212.09 19.216 211.066 19.216C209.914 19.216 208.858 18.928 207.898 18.352C206.954 17.76 206.202 16.944 205.642 15.904C205.098 14.848 204.826 13.656 204.826 12.328ZM215.65 12.376C215.65 11.464 215.458 10.672 215.074 10C214.706 9.328 214.218 8.816 213.61 8.464C213.002 8.112 212.346 7.936 211.642 7.936C210.938 7.936 210.282 8.112 209.674 8.464C209.066 8.8 208.57 9.304 208.186 9.976C207.818 10.632 207.634 11.416 207.634 12.328C207.634 13.24 207.818 14.04 208.186 14.728C208.57 15.416 209.066 15.944 209.674 16.312C210.298 16.664 210.954 16.84 211.642 16.84C212.346 16.84 213.002 16.664 213.61 16.312C214.218 15.96 214.706 15.448 215.074 14.776C215.458 14.088 215.65 13.288 215.65 12.376ZM221.091 12.328C221.091 11 221.363 9.824 221.907 8.8C222.467 7.776 223.219 6.984 224.163 6.424C225.123 5.848 226.179 5.56 227.331 5.56C228.371 5.56 229.275 5.768 230.043 6.184C230.827 6.584 231.451 7.088 231.915 7.696V5.776H234.675V19H231.915V17.032C231.451 17.656 230.819 18.176 230.019 18.592C229.219 19.008 228.307 19.216 227.283 19.216C226.147 19.216 225.107 18.928 224.163 18.352C223.219 17.76 222.467 16.944 221.907 15.904C221.363 14.848 221.091 13.656 221.091 12.328ZM231.915 12.376C231.915 11.464 231.723 10.672 231.339 10C230.971 9.328 230.483 8.816 229.875 8.464C229.267 8.112 228.611 7.936 227.907 7.936C227.203 7.936 226.547 8.112 225.939 8.464C225.331 8.8 224.835 9.304 224.451 9.976C224.083 10.632 223.899 11.416 223.899 12.328C223.899 13.24 224.083 14.04 224.451 14.728C224.835 15.416 225.331 15.944 225.939 16.312C226.563 16.664 227.219 16.84 227.907 16.84C228.611 16.84 229.267 16.664 229.875 16.312C230.483 15.96 230.971 15.448 231.339 14.776C231.723 14.088 231.915 13.288 231.915 12.376ZM243.069 19.216C242.029 19.216 241.093 19.032 240.261 18.664C239.445 18.28 238.797 17.768 238.317 17.128C237.837 16.472 237.581 15.744 237.549 14.944H240.381C240.429 15.504 240.693 15.976 241.173 16.36C241.669 16.728 242.285 16.912 243.021 16.912C243.789 16.912 244.381 16.768 244.797 16.48C245.229 16.176 245.445 15.792 245.445 15.328C245.445 14.832 245.205 14.464 244.725 14.224C244.261 13.984 243.517 13.72 242.493 13.432C241.501 13.16 240.693 12.896 240.069 12.64C239.445 12.384 238.901 11.992 238.437 11.464C237.989 10.936 237.765 10.24 237.765 9.376C237.765 8.672 237.973 8.032 238.389 7.456C238.805 6.864 239.397 6.4 240.165 6.064C240.949 5.728 241.845 5.56 242.853 5.56C244.357 5.56 245.565 5.944 246.477 6.712C247.405 7.464 247.901 8.496 247.965 9.808H245.229C245.181 9.216 244.941 8.744 244.509 8.392C244.077 8.04 243.493 7.864 242.757 7.864C242.037 7.864 241.485 8 241.101 8.272C240.717 8.544 240.525 8.904 240.525 9.352C240.525 9.704 240.653 10 240.909 10.24C241.165 10.48 241.477 10.672 241.845 10.816C242.213 10.944 242.757 11.112 243.477 11.32C244.437 11.576 245.221 11.84 245.829 12.112C246.453 12.368 246.989 12.752 247.437 13.264C247.885 13.776 248.117 14.456 248.133 15.304C248.133 16.056 247.925 16.728 247.509 17.32C247.093 17.912 246.501 18.376 245.733 18.712C244.981 19.048 244.093 19.216 243.069 19.216ZM7.472 41.56C8.512 41.56 9.44 41.776 10.256 42.208C11.088 42.64 11.736 43.28 12.2 44.128C12.664 44.976 12.896 46 12.896 47.2V55H10.184V47.608C10.184 46.424 9.888 45.52 9.296 44.896C8.704 44.256 7.896 43.936 6.872 43.936C5.848 43.936 5.032 44.256 4.424 44.896C3.832 45.52 3.536 46.424 3.536 47.608V55H0.8V41.776H3.536V43.288C3.984 42.744 4.552 42.32 5.24 42.016C5.944 41.712 6.688 41.56 7.472 41.56ZM22.1219 55.216C20.8739 55.216 19.7459 54.936 18.7379 54.376C17.7299 53.8 16.9379 53 16.3619 51.976C15.7859 50.936 15.4979 49.736 15.4979 48.376C15.4979 47.032 15.7939 45.84 16.3859 44.8C16.9779 43.76 17.7859 42.96 18.8099 42.4C19.8339 41.84 20.9779 41.56 22.2419 41.56C23.5059 41.56 24.6499 41.84 25.6739 42.4C26.6979 42.96 27.5059 43.76 28.0979 44.8C28.6899 45.84 28.9859 47.032 28.9859 48.376C28.9859 49.72 28.6819 50.912 28.0739 51.952C27.4659 52.992 26.6339 53.8 25.5779 54.376C24.5379 54.936 23.3859 55.216 22.1219 55.216ZM22.1219 52.84C22.8259 52.84 23.4819 52.672 24.0899 52.336C24.7139 52 25.2179 51.496 25.6019 50.824C25.9859 50.152 26.1779 49.336 26.1779 48.376C26.1779 47.416 25.9939 46.608 25.6259 45.952C25.2579 45.28 24.7699 44.776 24.1619 44.44C23.5539 44.104 22.8979 43.936 22.1939 43.936C21.4899 43.936 20.8339 44.104 20.2259 44.44C19.6339 44.776 19.1619 45.28 18.8099 45.952C18.4579 46.608 18.2819 47.416 18.2819 48.376C18.2819 49.8 18.6419 50.904 19.3619 51.688C20.0979 52.456 21.0179 52.84 22.1219 52.84ZM36.8026 52.552L40.5466 41.776H43.4506L38.4106 55H35.1466L30.1306 41.776H33.0586L36.8026 52.552ZM46.9108 40.024C46.4148 40.024 45.9988 39.856 45.6628 39.52C45.3268 39.184 45.1588 38.768 45.1588 38.272C45.1588 37.776 45.3268 37.36 45.6628 37.024C45.9988 36.688 46.4148 36.52 46.9108 36.52C47.3908 36.52 47.7988 36.688 48.1348 37.024C48.4708 37.36 48.6388 37.776 48.6388 38.272C48.6388 38.768 48.4708 39.184 48.1348 39.52C47.7988 39.856 47.3908 40.024 46.9108 40.024ZM48.2548 41.776V55H45.5188V41.776H48.2548ZM50.9349 48.328C50.9349 47 51.2069 45.824 51.7509 44.8C52.3109 43.776 53.0629 42.984 54.0069 42.424C54.9669 41.848 56.0309 41.56 57.1989 41.56C58.0629 41.56 58.9109 41.752 59.7429 42.136C60.5909 42.504 61.2629 43 61.7589 43.624V37.24H64.5189V55H61.7589V53.008C61.3109 53.648 60.6869 54.176 59.8869 54.592C59.1029 55.008 58.1989 55.216 57.1749 55.216C56.0229 55.216 54.9669 54.928 54.0069 54.352C53.0629 53.76 52.3109 52.944 51.7509 51.904C51.2069 50.848 50.9349 49.656 50.9349 48.328ZM61.7589 48.376C61.7589 47.464 61.5669 46.672 61.1829 46C60.8149 45.328 60.3269 44.816 59.7189 44.464C59.1109 44.112 58.4549 43.936 57.7509 43.936C57.0469 43.936 56.3909 44.112 55.7829 44.464C55.1749 44.8 54.6789 45.304 54.2949 45.976C53.9269 46.632 53.7429 47.416 53.7429 48.328C53.7429 49.24 53.9269 50.04 54.2949 50.728C54.6789 51.416 55.1749 51.944 55.7829 52.312C56.4069 52.664 57.0629 52.84 57.7509 52.84C58.4549 52.84 59.1109 52.664 59.7189 52.312C60.3269 51.96 60.8149 51.448 61.1829 50.776C61.5669 50.088 61.7589 49.288 61.7589 48.376ZM67.2005 48.328C67.2005 47 67.4725 45.824 68.0165 44.8C68.5765 43.776 69.3285 42.984 70.2725 42.424C71.2325 41.848 72.2885 41.56 73.4405 41.56C74.4805 41.56 75.3845 41.768 76.1525 42.184C76.9365 42.584 77.5605 43.088 78.0245 43.696V41.776H80.7845V55H78.0245V53.032C77.5605 53.656 76.9285 54.176 76.1285 54.592C75.3285 55.008 74.4165 55.216 73.3925 55.216C72.2565 55.216 71.2165 54.928 70.2725 54.352C69.3285 53.76 68.5765 52.944 68.0165 51.904C67.4725 50.848 67.2005 49.656 67.2005 48.328ZM78.0245 48.376C78.0245 47.464 77.8325 46.672 77.4485 46C77.0805 45.328 76.5925 44.816 75.9845 44.464C75.3765 44.112 74.7205 43.936 74.0165 43.936C73.3125 43.936 72.6565 44.112 72.0485 44.464C71.4405 44.8 70.9445 45.304 70.5605 45.976C70.1925 46.632 70.0085 47.416 70.0085 48.328C70.0085 49.24 70.1925 50.04 70.5605 50.728C70.9445 51.416 71.4405 51.944 72.0485 52.312C72.6725 52.664 73.3285 52.84 74.0165 52.84C74.7205 52.84 75.3765 52.664 75.9845 52.312C76.5925 51.96 77.0805 51.448 77.4485 50.776C77.8325 50.088 78.0245 49.288 78.0245 48.376ZM83.4661 48.328C83.4661 47 83.7381 45.824 84.2821 44.8C84.8421 43.776 85.5941 42.984 86.5381 42.424C87.4981 41.848 88.5621 41.56 89.7301 41.56C90.5941 41.56 91.4421 41.752 92.2741 42.136C93.1221 42.504 93.7941 43 94.2901 43.624V37.24H97.0501V55H94.2901V53.008C93.8421 53.648 93.2181 54.176 92.4181 54.592C91.6341 55.008 90.7301 55.216 89.7061 55.216C88.5541 55.216 87.4981 54.928 86.5381 54.352C85.5941 53.76 84.8421 52.944 84.2821 51.904C83.7381 50.848 83.4661 49.656 83.4661 48.328ZM94.2901 48.376C94.2901 47.464 94.0981 46.672 93.7141 46C93.3461 45.328 92.8581 44.816 92.2501 44.464C91.6421 44.112 90.9861 43.936 90.2821 43.936C89.5781 43.936 88.9221 44.112 88.3141 44.464C87.7061 44.8 87.2101 45.304 86.8261 45.976C86.4581 46.632 86.2741 47.416 86.2741 48.328C86.2741 49.24 86.4581 50.04 86.8261 50.728C87.2101 51.416 87.7061 51.944 88.3141 52.312C88.9381 52.664 89.5941 52.84 90.2821 52.84C90.9861 52.84 91.6421 52.664 92.2501 52.312C92.8581 51.96 93.3461 51.448 93.7141 50.776C94.0981 50.088 94.2901 49.288 94.2901 48.376ZM112.764 48.064C112.764 48.56 112.732 49.008 112.668 49.408H102.564C102.644 50.464 103.036 51.312 103.74 51.952C104.444 52.592 105.308 52.912 106.332 52.912C107.804 52.912 108.844 52.296 109.452 51.064H112.404C112.004 52.28 111.276 53.28 110.22 54.064C109.18 54.832 107.884 55.216 106.332 55.216C105.068 55.216 103.932 54.936 102.924 54.376C101.932 53.8 101.148 53 100.572 51.976C100.012 50.936 99.7318 49.736 99.7318 48.376C99.7318 47.016 100.004 45.824 100.548 44.8C101.108 43.76 101.884 42.96 102.876 42.4C103.884 41.84 105.036 41.56 106.332 41.56C107.58 41.56 108.692 41.832 109.668 42.376C110.644 42.92 111.404 43.688 111.948 44.68C112.492 45.656 112.764 46.784 112.764 48.064ZM109.908 47.2C109.892 46.192 109.532 45.384 108.828 44.776C108.124 44.168 107.252 43.864 106.212 43.864C105.268 43.864 104.46 44.168 103.788 44.776C103.116 45.368 102.716 46.176 102.588 47.2H109.908ZM120.256 55.216C119.216 55.216 118.28 55.032 117.448 54.664C116.632 54.28 115.984 53.768 115.504 53.128C115.024 52.472 114.768 51.744 114.736 50.944H117.568C117.616 51.504 117.88 51.976 118.36 52.36C118.856 52.728 119.472 52.912 120.208 52.912C120.976 52.912 121.568 52.768 121.984 52.48C122.416 52.176 122.632 51.792 122.632 51.328C122.632 50.832 122.392 50.464 121.912 50.224C121.448 49.984 120.704 49.72 119.68 49.432C118.688 49.16 117.88 48.896 117.256 48.64C116.632 48.384 116.088 47.992 115.624 47.464C115.176 46.936 114.952 46.24 114.952 45.376C114.952 44.672 115.16 44.032 115.576 43.456C115.992 42.864 116.584 42.4 117.352 42.064C118.136 41.728 119.032 41.56 120.04 41.56C121.544 41.56 122.752 41.944 123.664 42.712C124.592 43.464 125.088 44.496 125.152 45.808H122.416C122.368 45.216 122.128 44.744 121.696 44.392C121.264 44.04 120.68 43.864 119.944 43.864C119.224 43.864 118.672 44 118.288 44.272C117.904 44.544 117.712 44.904 117.712 45.352C117.712 45.704 117.84 46 118.096 46.24C118.352 46.48 118.664 46.672 119.032 46.816C119.4 46.944 119.944 47.112 120.664 47.32C121.624 47.576 122.408 47.84 123.016 48.112C123.64 48.368 124.176 48.752 124.624 49.264C125.072 49.776 125.304 50.456 125.32 51.304C125.32 52.056 125.112 52.728 124.696 53.32C124.28 53.912 123.688 54.376 122.92 54.712C122.168 55.048 121.28 55.216 120.256 55.216ZM131.709 38.32L131.397 49.96H129.117L128.805 38.32H131.709ZM130.341 55.168C129.845 55.168 129.429 55 129.093 54.664C128.757 54.328 128.589 53.912 128.589 53.416C128.589 52.92 128.757 52.504 129.093 52.168C129.429 51.832 129.845 51.664 130.341 51.664C130.821 51.664 131.229 51.832 131.565 52.168C131.901 52.504 132.069 52.92 132.069 53.416C132.069 53.912 131.901 54.328 131.565 54.664C131.229 55 130.821 55.168 130.341 55.168Z" fill="url(#paint0_linear_115_7242)"/>
<defs>
<linearGradient id="paint0_linear_115_7242" x1="156.102" y1="-14.92" x2="508.552" y2="250.948" gradientUnits="userSpaceOnUse">
<stop stop-color="#002F52"/>
<stop offset="1" stop-color="#326589"/>
</linearGradient>
</defs>
</svg>
